<?xml version="1.0" encoding="iso-8859-1"?>
<!-- Generator: Adobe Illustrator 16.0.0, SVG Export Plug-In . SVG Version: 6.00 Build 0)  -->
<!DOCTYPE svg PUBLIC "-//W3C//DTD SVG 1.1//EN" "http://www.w3.org/Graphics/SVG/1.1/DTD/svg11.dtd">
<svg version="1.1" id="Capa_1" xmlns="http://www.w3.org/2000/svg" xmlns:xlink="http://www.w3.org/1999/xlink" x="0px" y="0px"
	 width="446.604px" height="446.603px" viewBox="0 0 446.604 446.603" style="enable-background:new 0 0 446.604 446.603;"
	 xml:space="preserve">
<g>
	<g>
		<path d="M347.466,416.292V30.305C347.466,13.596,333.872,0,317.16,0H129.443c-16.709,0-30.305,13.596-30.305,30.305v385.987
			c0,16.707,13.596,30.311,30.305,30.311H317.16C333.872,446.603,347.466,433.009,347.466,416.292z M335.619,416.292
			c0,10.182-8.272,18.464-18.459,18.464H129.443c-10.168,0-18.456-8.282-18.456-18.464V30.305c0-10.168,8.287-18.456,18.456-18.456
			H317.16c10.187,0,18.459,8.287,18.459,18.456V416.292L335.619,416.292z"/>
		<path d="M320.934,49.279H125.683c-1.635,0-2.963,1.328-2.963,2.963v338.863c0,1.635,1.328,2.96,2.963,2.96h195.251
			c1.635,0,2.96-1.325,2.96-2.96V52.243C323.894,50.607,322.568,49.279,320.934,49.279z M310.066,388.14H136.544
			c-4.359,0-7.899-3.534-7.899-7.896V63.104c0-4.359,3.54-7.898,7.899-7.898h173.522c4.362,0,7.901,3.539,7.901,7.898v317.14
			C317.968,384.606,314.429,388.14,310.066,388.14z"/>
		<path d="M206.641,31.237h33.329c1.636,0,2.966-1.328,2.966-2.963c0-1.635-1.33-2.963-2.966-2.963h-33.329
			c-1.635,0-2.963,1.328-2.963,2.963C203.678,29.91,205.006,31.237,206.641,31.237z"/>
		<path d="M240.366,400.84h-34.129c-7.005,0-12.71,5.702-12.71,12.7v2.041c0,7.008,5.713,12.71,12.71,12.71h34.129
			c7.008,0,12.71-5.713,12.71-12.71v-2.041C253.087,406.542,247.374,400.84,240.366,400.84z M247.161,415.582
			c0,3.742-3.042,6.784-6.785,6.784h-34.129c-3.737,0-6.787-3.047-6.787-6.784v-2.041c0-3.737,3.057-6.779,6.787-6.779h34.129
			c3.753,0,6.785,3.052,6.785,6.779V415.582z"/>
		<path d="M173.761,270.372c-1.351,4.012-4.313,7.297-4.936,8.42c-0.411,0.751-0.467,1.563-0.317,2.244
			c0.142,0.584,0.823,2.488,3.547,2.488c2.861,0,18.304-3.144,27.563-11.029c3.326-2.828,6.177-6.089,7.536-6.23
			c1.369-0.152,4.339,2.742,7.467,5.783c6.423,6.256,15.665,10.796,26.364,12.857c4.281,0.823,9.633,4.189,13.066,6.881
			c8.287,6.505,21.154,9.12,23.602,9.12c2.133,0,3.194-1.285,3.469-2.483c0.157-0.665,0.111-1.462-0.284-2.198
			c-0.584-1.103-3.174-3.946-4.307-7.298c-1.127-3.351,1.6-7.235,5.484-9.216c12.924-6.617,20.896-17.555,20.896-29.447
			c0-19.778-21.973-35.881-48.957-35.881c-0.239,0-0.482,0.007-0.722,0.015c-0.391,0.018-1.762-2.915-3.839-6.114
			c-1.208-1.872-2.635-3.674-4.271-5.396c-10.231-10.728-27.454-17.144-46.06-17.144c-30.534,0-55.393,18.162-55.393,40.489
			c0,13.782,9.519,26.431,24.87,33.81C172.489,261.927,175.104,266.355,173.761,270.372z M254.96,223.208
			c-0.137-1.485,3.199-2.696,7.511-2.087c19.545,2.752,34.297,14.771,34.297,29.143c0,12.055-10.399,22.851-26.507,27.487
			c-1.574,0.457-2.514,2.051-2.144,3.631c0.519,2.244,1.036,4.301,1.564,6.149c0.965,3.371-1.438,5.118-5.394,3.3
			c-4.885-2.244-9.17-5.301-10.658-8.987c-0.432-1.117-1.493-1.869-2.687-1.93c-11.431-0.563-21.606-3.951-28.825-9.395
			c-3.486-2.62-2.207-6.2,1.894-7.688c18.685-6.753,31.064-21.058,31.064-36.932C255.077,225.01,255.036,224.106,254.96,223.208z
			 M240.691,207.123c5.307,5.583,7.962,12.142,7.622,18.954c-0.879,18.367-20.556,33.144-45.763,34.388
			c-1.186,0.057-2.252,0.812-2.702,1.92c-1.975,4.921-8.13,8.714-14.239,11.258c-4.027,1.676-6.152-0.604-4.984-4.656
			c0.64-2.209,1.272-4.677,1.896-7.384c0.371-1.589-0.569-3.193-2.14-3.641c-18.565-5.353-30.534-17.809-30.534-31.742
			c0-18.938,22.082-34.343,49.233-34.343C216.035,191.892,231.592,197.579,240.691,207.123z"/>
		<path d="M171.146,237.547c-1.61-0.451-2.971-0.619-3.207,0.133c-0.236,0.751,0.869,2.158,2.664,2.59
			c1.059,0.254,2.204,0.411,3.308,0.411c5.926,0,8.762-3.388,8.762-7.262c0-3.677-2.133-5.733-6.375-7.368
			c-3.468-1.336-5.001-2.498-5.001-4.845c0-1.706,1.312-3.76,4.74-3.76c0.917,0,1.739,0.119,2.442,0.287
			c1.317,0.314,2.48,0.314,2.724-0.419c0.247-0.729-0.686-1.96-2.234-2.278c-0.823-0.165-1.77-0.267-2.829-0.267
			c-4.875,0-8.115,2.897-8.115,6.81c0,3.501,2.529,5.665,6.637,7.147c3.382,1.275,4.725,2.646,4.725,4.956
			c0,2.534-1.929,4.281-5.246,4.281C173.098,237.964,172.08,237.812,171.146,237.547z"/>
		<path d="M190.526,223.974c0.135-3.067,0.774-3.344,1.587-0.649c0.467,1.543,0.988,3.158,1.549,4.85c0,0,0.917,2.681,2.046,5.981
			s2.59,5.981,3.271,5.981c0.68,0,2.219-2.727,3.453-6.093l2.219-6.089c0.602-1.65,1.145-3.229,1.643-4.748
			c0.871-2.63,1.579-2.354,1.724,0.64c0.086,1.833,0.18,3.712,0.274,5.419c0,0,0.135,2.463,0.302,5.504
			c0.165,3.042,1.018,5.51,1.894,5.51c0.886,0,1.376-3.534,1.107-7.886l-0.577-9.323c-0.269-4.352-1.414-7.884-2.559-7.884
			c-1.146,0-3.064,2.719-4.299,6.068l-2.227,6.065c-0.531,1.488-1.003,2.874-1.43,4.205c-0.751,2.33-1.787,2.346-2.506,0.01
			c-0.411-1.346-0.86-2.742-1.358-4.215c0,0-0.955-2.717-2.14-6.065c-1.178-3.349-3.064-6.068-4.202-6.068
			c-1.137,0-2.315,3.532-2.625,7.884l-0.655,9.333c-0.307,4.352,0.134,7.881,0.988,7.881c0.853,0,1.698-2.407,1.881-5.378
			l0.34-5.382C190.351,227.702,190.447,225.807,190.526,223.974z"/>
		<path d="M219.463,237.547c-1.61-0.451-2.963-0.619-3.199,0.133c-0.236,0.751,0.868,2.158,2.663,2.59
			c1.051,0.254,2.204,0.411,3.309,0.411c5.908,0,8.747-3.388,8.747-7.262c0-3.677-2.133-5.733-6.375-7.368
			c-3.461-1.336-4.987-2.498-4.987-4.845c0-1.706,1.297-3.76,4.725-3.76c0.924,0,1.747,0.119,2.451,0.287
			c1.327,0.322,2.485,0.314,2.734-0.419c0.243-0.729-0.691-1.96-2.24-2.278c-0.82-0.165-1.774-0.267-2.833-0.267
			c-4.875,0-8.115,2.897-8.115,6.81c0,3.501,2.544,5.665,6.637,7.147c3.397,1.275,4.723,2.646,4.723,4.956
			c0,2.534-1.928,4.281-5.246,4.281C221.408,237.964,220.395,237.812,219.463,237.547z"/>
	</g>
</g>
<g>
</g>
<g>
</g>
<g>
</g>
<g>
</g>
<g>
</g>
<g>
</g>
<g>
</g>
<g>
</g>
<g>
</g>
<g>
</g>
<g>
</g>
<g>
</g>
<g>
</g>
<g>
</g>
<g>
</g>
</svg>
